<svg xmlns="http://www.w3.org/2000/svg" viewBox="0 0 295.73 85.04"><defs><style>.cls-1{fill:#fff;}</style></defs><g id="Capa_2" data-name="Capa 2"><g id="Capa_3" data-name="Capa 3"><path class="cls-1" d="M81,76.53s2.62,3.65,12.35,8.15c0,0-14.23.85-24.45-2.07a36.18,36.18,0,0,1-11.42-5A39.46,39.46,0,0,1,67.47,0c.93,0,1.85,0,2.77.1A39.46,39.46,0,0,1,81,76.53ZM67.47,18.22A21.23,21.23,0,1,0,88.71,39.45,21.22,21.22,0,0,0,67.47,18.22Z"/><path class="cls-1" d="M40.06,72.93A23.66,23.66,0,0,1,24.27,79a24.23,24.23,0,1,1,0-48.45c.38,0,1.28,0,1.65,0a30.16,30.16,0,0,0-.77,6c-.18,3.34,0,5.71-.1,5.71h-.86a12.4,12.4,0,0,0,.1,24.8,11.58,11.58,0,0,0,8.38-3.23,53.16,53.16,0,0,0,3.7,4.51,44.71,44.71,0,0,0,4.26,4A3.06,3.06,0,0,1,40.06,72.93Z"/><path class="cls-1" d="M146.92,29.75c-1.95-2.69-5.48-3.85-8.48-3.85-7.69,0-12.91,6-12.91,13.64,0,8.12,5,13.76,12.65,13.76A11,11,0,0,0,147.24,49l5.32,3.74c-3.27,4.11-8.11,6.53-14.43,6.53-11.65,0-19.92-8.06-19.92-19.71,0-11.95,8.75-19.49,20.23-19.49,4.85,0,10.59,1.79,13.54,5.69Z"/><path class="cls-1" d="M156.67,21h6.64V58.3h-6.64Z"/><path class="cls-1" d="M183.22,21H189L205,58.3h-7.58L194,49.77H177.8l-3.38,8.53H167Zm8.43,23.08L185.91,28.9l-5.85,15.18Z"/><path class="cls-1" d="M227.74,28.8a9.13,9.13,0,0,0-6.85-3.22c-3.06,0-6.59,1.48-6.59,5.11,0,3.43,2.9,4.43,7.12,5.75,4.79,1.47,10.9,3.58,10.9,10.9,0,8-6.27,11.91-13.59,11.91-4.85,0-9.85-1.84-12.8-5.32l4.74-4.43a10.62,10.62,0,0,0,8.17,4.11c3.1,0,6.74-1.53,6.74-5.53s-3.9-5-8.59-6.48c-4.53-1.42-9.43-3.64-9.43-10.59,0-7.59,6.9-11,13.65-11a16.28,16.28,0,0,1,10.85,4Z"/><path class="cls-1" d="M116.59,66.32a2.41,2.41,0,0,0-1.93-.88,2.93,2.93,0,0,0-2.94,3.11,2.85,2.85,0,0,0,2.88,3.13,2.48,2.48,0,0,0,2.06-1l1.22.85A4,4,0,0,1,114.59,73a4.47,4.47,0,1,1,.07-8.93,4,4,0,0,1,3.08,1.29Z"/><path class="cls-1" d="M118.81,64.32h5.63v1.32h-4.12v2.17h3.9v1.27h-3.9v2.4h4.34v1.34h-5.85Z"/><path class="cls-1" d="M126.13,64.32h2l4,6.37h0V64.32h1.51v8.5H131.7l-4-6.56h0v6.56h-1.52Z"/><path class="cls-1" d="M137.21,65.64h-2.6V64.32h6.72v1.32h-2.61v7.18h-1.51Z"/><path class="cls-1" d="M142.31,64.32h2.95c1.6,0,3.14.64,3.14,2.44a2.25,2.25,0,0,1-2,2.29l2.27,3.77H146.9l-2-3.6h-1.11v3.6h-1.51ZM145.06,68c.85,0,1.82-.21,1.82-1.24s-.91-1.15-1.69-1.15h-1.37V68Z"/><path class="cls-1" d="M154,64.11a4.29,4.29,0,0,1,4.59,4.44,4.57,4.57,0,0,1-9.14,0A4.28,4.28,0,0,1,154,64.11Zm0,7.57a3.13,3.13,0,1,0-2.91-3.13A2.91,2.91,0,0,0,154,71.68Z"/><path class="cls-1" d="M163.05,64.32h3c2.22,0,4.69,1.06,4.69,4.25,0,3-2.47,4.25-4.69,4.25h-3Zm2.77,7.18c1.56,0,3.31-.63,3.31-2.93s-1.75-2.95-3.31-2.95h-1.26V71.5Z"/><path class="cls-1" d="M172.22,64.32h5.63v1.32h-4.12v2.17h3.9v1.27h-3.9v2.4h4.33v1.34h-5.84Z"/><path class="cls-1" d="M182.54,64.32h1.51v8.5h-1.51Z"/><path class="cls-1" d="M185.92,64.32h2l3.95,6.37h0V64.32h1.51v8.5h-1.92l-4-6.56h0v6.56h-1.52Z"/><path class="cls-1" d="M195.29,64.32h5.48v1.32h-4V68h3.74v1.28H196.8v3.57h-1.51Z"/><path class="cls-1" d="M206.3,64.11a4.29,4.29,0,0,1,4.59,4.44,4.57,4.57,0,0,1-9.14,0A4.28,4.28,0,0,1,206.3,64.11Zm0,7.57a3.13,3.13,0,1,0-2.91-3.13A2.91,2.91,0,0,0,206.31,71.68Z"/><path class="cls-1" d="M212.35,64.32h3c1.6,0,3.14.64,3.14,2.44a2.25,2.25,0,0,1-1.95,2.29l2.27,3.77h-1.82l-2-3.6h-1.11v3.6h-1.51ZM215.1,68c.85,0,1.82-.21,1.82-1.24s-.91-1.15-1.69-1.15h-1.37V68Z"/><path class="cls-1" d="M219.9,64.32h2.36l2.21,6h0l2.18-6h2.38v8.5h-1.5V66h0L225,72.82h-1.06L221.36,66h0v6.83H219.9Z"/><path class="cls-1" d="M233.61,64.32h1.3l3.67,8.5h-1.73l-.8-1.94h-3.68l-.77,1.94h-1.69Zm1.92,5.26-1.31-3.46-1.33,3.46Z"/><path class="cls-1" d="M245.33,66.32a2.41,2.41,0,0,0-1.93-.88,2.93,2.93,0,0,0-2.94,3.11,2.85,2.85,0,0,0,2.88,3.13,2.48,2.48,0,0,0,2.06-1l1.22.85A4,4,0,0,1,243.33,73a4.47,4.47,0,1,1,.07-8.93,4,4,0,0,1,3.08,1.29Z"/><path class="cls-1" d="M247.55,64.32h1.51v8.5h-1.51Z"/><path class="cls-1" d="M255.08,64.11a4.28,4.28,0,0,1,4.58,4.44,4.57,4.57,0,0,1-9.13,0A4.28,4.28,0,0,1,255.08,64.11Zm0,7.57a3.13,3.13,0,1,0-2.92-3.13A2.91,2.91,0,0,0,255.09,71.68Zm.43-9.76h1.63l-1.69,1.73h-1.13Z"/><path class="cls-1" d="M261.13,64.32h2l3.95,6.37h0V64.32h1.52v8.5h-1.93l-4-6.56h0v6.56h-1.51Z"/><path class="cls-1" d="M112.51,81.14l-3.19-4.81h1.85l2.13,3.57,2.16-3.57h1.76L114,81.14v3.68h-1.51Z"/><path class="cls-1" d="M123.08,76.33h1.31l3.66,8.49h-1.72l-.8-1.94h-3.68l-.77,1.94h-1.69ZM125,81.58l-1.31-3.45-1.34,3.45Z"/><path class="cls-1" d="M128.89,76.33h2l3.95,6.36h0V76.33h1.51v8.49h-1.92l-4-6.56h0v6.56h-1.52Z"/><path class="cls-1" d="M140.92,76.33h1.31l3.66,8.49h-1.73l-.79-1.94h-3.69l-.76,1.94h-1.7Zm1.92,5.25-1.31-3.45-1.33,3.45Zm-.72-7.65h1.63l-1.69,1.72h-1.13Z"/><path class="cls-1" d="M146.73,76.33h1.51v7.15h3.61v1.34h-5.12Z"/><path class="cls-1" d="M152.86,76.33h1.51v8.49h-1.51Z"/><path class="cls-1" d="M160.58,78.1a2.09,2.09,0,0,0-1.56-.73c-.7,0-1.5.34-1.5,1.16s.66,1,1.62,1.31,2.48.82,2.48,2.49c0,1.82-1.43,2.71-3.09,2.71a3.87,3.87,0,0,1-2.92-1.21l1.08-1a2.41,2.41,0,0,0,1.86.94c.71,0,1.54-.35,1.54-1.26s-.89-1.15-2-1.48S156,80.19,156,78.61c0-1.73,1.57-2.5,3.11-2.5a3.72,3.72,0,0,1,2.47.91Z"/><path class="cls-1" d="M163.13,76.33h1.52v8.49h-1.52Z"/><path class="cls-1" d="M170.85,78.1a2.07,2.07,0,0,0-1.56-.73c-.7,0-1.5.34-1.5,1.16s.66,1,1.62,1.31,2.48.82,2.48,2.49c0,1.82-1.42,2.71-3.09,2.71a3.87,3.87,0,0,1-2.92-1.21l1.08-1a2.41,2.41,0,0,0,1.86.94c.71,0,1.54-.35,1.54-1.26s-.89-1.15-2-1.48-2.15-.83-2.15-2.41c0-1.73,1.58-2.5,3.11-2.5a3.7,3.7,0,0,1,2.47.91Z"/><path class="cls-1" d="M176.41,76.33h2.77c1.94,0,3.2.68,3.2,2.46s-1.5,2.52-3.3,2.52h-1.16v3.51h-1.51ZM179,80c1,0,1.88-.24,1.88-1.24S180,77.6,179,77.6h-1.1V80Z"/><path class="cls-1" d="M185.67,76.33H187l3.66,8.49h-1.73l-.79-1.94h-3.68l-.77,1.94H182Zm1.92,5.25-1.31-3.45L185,81.58Z"/><path class="cls-1" d="M191.48,76.33h3c1.6,0,3.14.63,3.14,2.43a2.25,2.25,0,0,1-1.95,2.29l2.27,3.77h-1.82l-2-3.6H193v3.6h-1.51ZM194.23,80c.85,0,1.82-.21,1.82-1.24s-.91-1.15-1.69-1.15H193V80Z"/><path class="cls-1" d="M201.69,76.33H203l3.66,8.49h-1.73l-.79-1.94h-3.68l-.77,1.94H198Zm1.92,5.25-1.3-3.45L201,81.58Z"/><path class="cls-1" d="M210.29,76.33h1.51v7.15h3.61v1.34h-5.12Z"/><path class="cls-1" d="M219.08,76.33h1.31l3.66,8.49h-1.72l-.8-1.94h-3.68l-.77,1.94h-1.69ZM221,81.58l-1.3-3.45-1.34,3.45Z"/><path class="cls-1" d="M232,78.1a2.07,2.07,0,0,0-1.56-.73c-.7,0-1.5.34-1.5,1.16s.66,1,1.62,1.31,2.48.82,2.48,2.49c0,1.82-1.42,2.71-3.09,2.71A3.87,3.87,0,0,1,227,83.83l1.08-1a2.41,2.41,0,0,0,1.86.94c.71,0,1.54-.35,1.54-1.26s-.89-1.15-2-1.48-2.15-.83-2.15-2.41c0-1.73,1.58-2.5,3.11-2.5A3.7,3.7,0,0,1,233,77Z"/><path class="cls-1" d="M234.57,76.33h5.63v1.32h-4.12v2.16H240v1.27h-3.9v2.4h4.33v1.34h-5.84Z"/><path class="cls-1" d="M249.33,84.38a7.19,7.19,0,0,1-3.21.66,4.47,4.47,0,1,1,0-8.93,4.87,4.87,0,0,1,3.23,1.07l-1,1.13a3,3,0,0,0-2.17-.87,3.12,3.12,0,0,0,.07,6.24,4.25,4.25,0,0,0,1.69-.3V81.22h-1.78V80h3.25Z"/><path class="cls-1" d="M257.93,81.7a3.42,3.42,0,0,1-6.84,0V76.33h1.51v5.31a1.91,1.91,0,1,0,3.82,0V76.33h1.51Z"/><path class="cls-1" d="M259.73,76.33h3c1.59,0,3.13.63,3.13,2.43a2.25,2.25,0,0,1-1.95,2.29l2.27,3.77h-1.82l-2-3.6h-1.1v3.6h-1.52ZM262.48,80c.85,0,1.83-.21,1.83-1.24s-.92-1.15-1.7-1.15h-1.36V80Z"/><path class="cls-1" d="M267.28,76.33h1.51v8.49h-1.51Z"/><path class="cls-1" d="M270.67,76.33h3c2.22,0,4.69,1,4.69,4.24,0,3-2.47,4.25-4.69,4.25h-3Zm2.77,7.17c1.56,0,3.31-.63,3.31-2.93s-1.75-2.95-3.31-2.95h-1.26V83.5Z"/><path class="cls-1" d="M282.21,76.33h1.31l3.66,8.49h-1.73l-.79-1.94H281l-.77,1.94h-1.69Zm1.92,5.25-1.31-3.45-1.33,3.45Z"/><path class="cls-1" d="M288,76.33h3c2.22,0,4.7,1,4.7,4.24,0,3-2.48,4.25-4.7,4.25h-3Zm2.77,7.17c1.56,0,3.32-.63,3.32-2.93s-1.76-2.95-3.32-2.95h-1.26V83.5Z"/></g></g></svg>